<svg width="1391" height="376" viewBox="0 0 1391 376" fill="none" xmlns="http://www.w3.org/2000/svg">
<g clip-path="url(#clip0_32_4569)">
<path d="M1380.96 25.2866H866.105L871.204 30.2782H1387.42L1380.96 25.2866Z" fill="#7E7B3A"/>
<path d="M1112.86 357.927L506.381 357.927L503.916 362.927L1117.27 362.927L1112.86 357.927Z" fill="#7E7B3A"/>
<path d="M50.7273 24.5653L46.2451 29.5554H217.886L222.454 24.5653H50.7273Z" fill="#7E7B3A"/>
<path d="M10.4023 265.737L10.403 189.257L15.3905 194.374L15.3905 261.089L10.4023 265.737Z" fill="#7E7B3A"/>
<path d="M1375.6 263.023V175.184L1380.6 170.416V267.073L1375.6 263.023Z" fill="#7E7B3A"/>
<path d="M46.5555 30.0764L3.94701 87.5018V183.301L15.4647 193.966V260.826L3.52051 272.343V331.738L39.7803 375.571H496.654L506.465 357.76H1112.69L1129.18 375.571H1365.18L1387.05 351.225L1387.48 272.343L1375.32 262.532V175.459L1387.05 163.728V30.0764H870.983L841.335 0.428711H410.483L391.138 21.9713H224.868L216.763 30.0764H46.5555Z" fill="#4E5044" fill-opacity="0.6" stroke="#676A3A"/>
</g>
<defs>
<clipPath id="clip0_32_4569">
<rect width="1391" height="376" fill="white"/>
</clipPath>
</defs>
</svg>
