<svg width="717" height="615" viewBox="0 0 717 615" fill="none" xmlns="http://www.w3.org/2000/svg">
<path d="M30.291 288.01L25.291 283.611V359.397L30.291 354.998V288.01Z" fill="#7E7B3A"/>
<path d="M689.707 154.277V65.6819L684.707 70.9555V149.48L689.707 154.277Z" fill="#7E7B3A"/>
<path d="M184.475 24.2939H70.625L75.2534 29.2939H179.486L184.475 24.2939Z" fill="#7E7B3A"/>
<path d="M63.5018 17.3161H15.6916L14.7667 92.7187L1 106.485V166.71L14.7667 180.477V272.409L30.2172 287.86V355.128L14.7667 370.579V533.148L73.3671 591.748H286.062L308.022 613.709H414.551L434.377 593.883H649.742L700.018 543.606V509.845L715.576 494.288V340.223L700.018 324.666V165.11L684.271 149.363V71.0074L700.018 55.2605V17.3161H416.005L399.689 1H285.097L270.678 17.3161H191.754L179.611 29.4582H75.6439L63.5018 17.3161Z" fill="#4E5044" fill-opacity="0.6" stroke="#676A3A"/>
</svg>
