<svg width="716" height="895" viewBox="0 0 716 895" fill="none" xmlns="http://www.w3.org/2000/svg">
<path d="M29.791 329.979L24.791 325.58V468.462L29.791 464.064V329.979Z" fill="#7E7B3A"/>
<path d="M689.207 191.817V65.6819L684.207 70.9555V187.019L689.207 191.817Z" fill="#7E7B3A"/>
<path d="M183.975 24.2939H70.125L74.7534 29.2939H178.986L183.975 24.2939Z" fill="#7E7B3A"/>
<path d="M63.0018 17.3161H15.1916L14.2667 92.7187L0.5 106.485V166.71L14.2667 180.477V314.124L29.7172 329.574V464.109L14.2667 479.559V809.197L72.8671 871.797H285.562L307.522 893.757H414.051L433.877 873.931H649.242L699.518 819.655V672.307L715.076 656.75V389.881L699.518 374.323V202.861L683.771 187.115V71.0074L699.518 55.2605V17.3161H415.505L399.189 1H284.597L270.178 17.3161H191.254L179.111 29.4582H75.1439L63.0018 17.3161Z" fill="#4E5044" fill-opacity="0.6" stroke="#676A3A"/>
</svg>
