<svg width="685" height="483" viewBox="0 0 685 483" fill="none" xmlns="http://www.w3.org/2000/svg">
<path d="M675.217 64.3821V79.9734L674.597 79.9728V402.83H675.233V418.154L683.73 422.792V440.823L629.127 480.805H372.118L351.877 464.718H20.465L7.7215 453.799H1.24414V421.874L9.82013 418.421V402.83H10.8851V79.3758L10.1264 79.3751V63.896L1.49941 60.1464V41.8792L57.9798 1.99854H313.394L333.98 18.0848H667.154L679.574 28.4836H683.764V60.3744L675.217 64.3821Z" fill="#4E5044" fill-opacity="0.6"/>
<path d="M6.42773 419.624V62.5176L11.4277 64.0685V417.957L6.42773 419.624Z" fill="#7E7B3A"/>
<path d="M672.241 65.3946L676.801 63.5821L676.917 419.565L671.917 417.91L672.241 65.3946Z" fill="#7E7B3A"/>
<path opacity="0.5" d="M2.51392 60.6936V421.363" stroke="#656715"/>
<path d="M681.078 62.1704V421.912" stroke="#656715"/>
<path d="M317.891 5.49844L53.8356 5.13989L1.48757 42.0741V60.2081L11.2623 64.0861V417.959L1.29614 421.837V453.831L338.227 453.831L373.417 481.947H627.594L683.764 440.743V422.807L676.575 418.929V64.2092L683.631 60.321V28.4384H346.899L317.891 5.49844Z" stroke="#676A3A"/>
<path d="M1 42.2723L59.6488 1.06787H645.831L679.73 28.404" stroke="#B3AE4A"/>
<path d="M318.627 6L313.609 1H59.7845L54.3213 5.43763L318.627 6Z" fill="#7E7B3A"/>
<path d="M7.6189 453.776L41.1128 481.985H627.592L684 440.635" stroke="#B0AF4C"/>
<path d="M373.404 481.948L367.28 476.948H633.795L627.525 481.948H373.404Z" fill="#7E7B3A"/>
</svg>
