<svg width="683" height="414" viewBox="0 0 683 414" fill="none" xmlns="http://www.w3.org/2000/svg">
<g clip-path="url(#clip0_40_2415)">
<path d="M561.979 393.913H366.504L364.041 398.913H566.384L561.979 393.913Z" fill="#7E7B3A"/>
<path d="M243.253 393.787L116.267 393.912L113.804 398.912L245.127 398.993L243.253 393.787Z" fill="#7E7B3A"/>
<path d="M211.205 9.81913L213.919 13.8768H340.53L342.133 9.81909L211.205 9.81913Z" fill="#7E7B3A"/>
<path d="M7.39648 276.974L7.39746 133.728L12.3806 138.844L12.3802 272.326L7.39648 276.974Z" fill="#7E7B3A"/>
<path d="M670.457 247.198V159.359L675.453 154.591V251.248L670.457 247.198Z" fill="#7E7B3A"/>
<path d="M43.4968 14.2514L0.926308 52.0263L0.926125 127.972L12.4335 138.636V271.813L0.5 283.331L0.500183 368.376L36.7277 412.21H107.322L116.36 394.398H243.069L249.74 412.21H356.864L366.667 394.398H561.904L578.375 412.21H660.22L682.074 387.863L682.5 256.518L670.353 246.707V159.634L682.074 147.903V47.9151L651.317 14.2514H596.718L586.057 0H346.224L339.974 14.2513L214.229 14.2514L203.34 5.96046e-06H109.777L94.9052 14.2514H43.4968Z" fill="#4E5044" fill-opacity="0.6" stroke="#676A3A"/>
</g>
<defs>
<clipPath id="clip0_40_2415">
<rect width="683" height="414" fill="white"/>
</clipPath>
</defs>
</svg>
