<svg width="24" height="25" viewBox="0 0 24 25" fill="none" xmlns="http://www.w3.org/2000/svg">
<path d="M12 2.9V11.099C12 11.1516 12.0104 11.2037 12.0305 11.2523C12.0507 11.3009 12.0803 11.345 12.1175 11.3822C12.1548 11.4194 12.199 11.4488 12.2476 11.4688C12.2963 11.4889 12.3484 11.4991 12.401 11.499L13.939 11.495L15.026 11.485L17.06 11.458L20.608 11.388C20.7127 11.3859 20.8124 11.3428 20.8857 11.2681C20.959 11.1933 21 11.0927 21 10.988V10.758C21 6.199 17.258 2.5 12.643 2.5H12.4C12.3475 2.5 12.2955 2.51035 12.2469 2.53045C12.1984 2.55055 12.1543 2.58001 12.1172 2.61716C12.08 2.6543 12.0506 2.6984 12.0304 2.74693C12.0103 2.79546 12 2.84747 12 2.9Z" fill="currentColor"/>
<path d="M10.75 4.35806V12.0501C10.75 12.1551 10.7707 12.2591 10.8109 12.3562C10.8511 12.4533 10.9101 12.5415 10.9844 12.6157C11.0586 12.69 11.1468 12.749 11.2439 12.7892C11.341 12.8294 11.445 12.8501 11.55 12.8501H19.319C19.3429 12.8501 19.3666 12.8548 19.3886 12.864C19.4107 12.8733 19.4306 12.8868 19.4474 12.9038C19.4642 12.9209 19.4774 12.9411 19.4862 12.9633C19.4951 12.9854 19.4994 13.0092 19.499 13.0331C19.4631 14.7444 18.926 16.4076 17.9542 17.8168C16.9824 19.2259 15.6186 20.3191 14.0318 20.9609C12.4449 21.6027 10.7047 21.765 9.02649 21.4276C7.34833 21.0903 5.80598 20.2681 4.59041 19.0629C3.37485 17.8577 2.53947 16.3225 2.18772 14.6473C1.83597 12.9721 1.9833 11.2305 2.61146 9.6382C3.23962 8.04589 4.32103 6.6728 5.72177 5.68895C7.12251 4.7051 8.78106 4.15371 10.492 4.10306C10.5258 4.10253 10.5594 4.10874 10.5907 4.12133C10.6221 4.13391 10.6506 4.15263 10.6746 4.17638C10.6986 4.20012 10.7177 4.22842 10.7306 4.25962C10.7436 4.29081 10.7502 4.32428 10.75 4.35806Z" fill="currentColor"/>
</svg>
